<svg width="175" height="40" viewBox="0 0 175 40" fill="none" xmlns="http://www.w3.org/2000/svg">
<path d="M101.63 21.4426H97.7317V19.4933H95.7824V17.544H93.8331V11.696H95.7824V9.74673H97.7317V7.79741H99.681V5.8481H101.63V3.89878H103.58V1.94946H105.529V3.89878H107.478V5.8481H109.428V7.79741H111.377V9.74673H113.326V11.696H115.276V17.544H113.326V19.4933H111.377V21.4426H107.478V19.4933H105.529V17.544H103.58V19.4933H101.63V21.4426ZM101.63 19.4933V17.544H103.58V15.5947H105.529V17.544H107.478V19.4933H111.377V17.544H113.326V11.696H111.377V9.74673H109.428V7.79741H107.478V5.8481H105.529V3.89878H103.58V5.8481H101.63V7.79741H99.681V9.74673H97.7317V11.696H95.7824V17.544H97.7317V19.4933H101.63Z" fill="#CA5497"/>
<path d="M101.63 17.544V19.4933H97.7317V17.544H95.7824V11.696H97.7317V9.74673H99.681V7.79741H101.63V5.8481H103.58V3.89878H105.529V5.8481H107.478V7.79741H109.428V9.74673H111.377V11.696H113.326V17.544H111.377V19.4933H107.478V17.544H105.529V15.5947H103.58V17.544H101.63Z" fill="#CA5497"/>
<g clip-path="url(#clip0_381_1128)">
<path d="M58.3626 1.94946H54.4639V3.89878H52.5146V5.8481H50.5653V11.696H52.5146V13.6454H54.4639V15.5947H56.4133V17.544H58.3626V19.4933H60.3119V21.4426H62.2612V19.4933H64.2105V17.544H66.1598V15.5947H68.1092V13.6454H70.0585V11.696H72.0078V5.8481H70.0585V3.89878H68.1092V1.94946H64.2105V3.89878H62.2612V5.8481H60.3119V3.89878H58.3626V1.94946ZM58.3626 3.89878V5.8481H60.3119V7.79741H62.2612V5.8481H64.2105V3.89878H68.1092V5.8481H70.0585V11.696H68.1092V13.6454H66.1598V15.5947H64.2105V17.544H62.2612V19.4933H60.3119V17.544H58.3626V15.5947H56.4133V13.6454H54.4639V11.696H52.5146V5.8481H54.4639V3.89878H58.3626Z" fill="#CA5497"/>
<path d="M58.3626 5.8481V3.89878H54.4639V5.8481H52.5146V11.696H54.4639V13.6454H56.4133V15.5947H58.3626V17.544H60.3119V19.4933H62.2612V17.544H64.2105V15.5947H66.1598V13.6454H68.1092V11.696H70.0585V5.8481H68.1092V3.89878H64.2105V5.8481H62.2612V7.79741H60.3119V5.8481H58.3626Z" fill="#CA5497"/>
</g>
<path d="M146.075 34.152V31.228H148.999V7.83621H137.303V4.91223H154.847V31.228H151.923V34.152H148.999V37.076H140.227V34.152H146.075Z" fill="#5489CA"/>
<path d="M8.77192 34.1521V31.2281H11.6959V7.83633H0V4.91235H17.5438V31.2281H14.6199V34.1521H11.6959V37.0761H2.92397V34.1521H8.77192Z" fill="#5489CA"/>
<path d="M174.964 1.9884V40.0001H169.116V1.9884H174.964Z" fill="#5489CA"/>
<path d="M128.18 1.9884V22.4562H122.332V1.9884H128.18ZM93.0923 37.0761V31.2281H122.332V28.3042H93.0923V25.3802H128.18V34.1521H98.9403V37.0761H128.18V40.0001H96.0163V37.0761H93.0923Z" fill="#5489CA"/>
<path d="M84.4444 1.9884V22.4562H78.5964V1.9884H84.4444ZM84.4444 25.3802V37.0761H81.5204V40.0001H52.2807V37.0761H49.3567V25.3802H84.4444ZM78.5964 37.0761V28.3042H55.2046V37.0761H78.5964Z" fill="#5489CA"/>
<path d="M31.8128 1.9884V40.0001H25.9649V22.4562H20.1169V19.5323H25.9649V1.9884H31.8128ZM40.5848 1.9884V40.0001H34.7368V1.9884H40.5848Z" fill="#5489CA"/>
<defs>
<clipPath id="clip0_381_1128">
<rect width="23.3918" height="23.3918" fill="white" transform="translate(49.5906)"/>
</clipPath>
</defs>
</svg>
