<svg width="32" height="32" viewBox="0 0 32 32" fill="none" xmlns="http://www.w3.org/2000/svg">
<g clip-path="url(#clip0_310_1098)">
<path d="M2.28501 10.6701H29.715V30.4801H31.235V6.1001H29.715V9.1401H2.28501V6.1001H0.765015V30.4801H2.28501V10.6701Z" fill="white"/>
<path d="M29.715 4.57007H28.195V6.10007H29.715V4.57007Z" fill="white"/>
<path d="M29.715 30.48H2.28503V32H29.715V30.48Z" fill="white"/>
<path d="M25.145 18.29H22.095V19.81H20.575V18.29H17.525V19.81H16.005V22.86H17.525V24.38H19.045V25.9H20.575V27.43H22.095V25.9H23.615V24.38H25.145V22.86H26.665V19.81H25.145V18.29Z" fill="white"/>
<path d="M25.145 13.71H23.615V15.24H25.145V13.71Z" fill="white"/>
<path d="M19.045 13.71H17.525V15.24H19.045V13.71Z" fill="white"/>
<path d="M12.955 25.8999H11.425V27.4299H12.955V25.8999Z" fill="white"/>
<path d="M12.955 19.8101H11.425V21.3301H12.955V19.8101Z" fill="white"/>
<path d="M12.955 13.71H11.425V15.24H12.955V13.71Z" fill="white"/>
<path d="M6.85502 25.8999H5.33502V27.4299H6.85502V25.8999Z" fill="white"/>
<path d="M6.85502 19.8101H5.33502V21.3301H6.85502V19.8101Z" fill="white"/>
<path d="M6.85502 13.71H5.33502V15.24H6.85502V13.71Z" fill="white"/>
<path d="M8.385 4.57V6.1H9.905V4.57H22.095V6.1H23.615V4.57H28.195V3.05H23.615V0H22.095V3.05H9.905V0H8.385V3.05H3.815V4.57H8.385Z" fill="white"/>
<path d="M3.81503 4.57007H2.28503V6.10007H3.81503V4.57007Z" fill="white"/>
</g>
<defs>
<clipPath id="clip0_310_1098">
<rect width="32" height="32" fill="white"/>
</clipPath>
</defs>
</svg>
