<svg width="33" height="32" viewBox="0 0 33 32" fill="none" xmlns="http://www.w3.org/2000/svg">
<path d="M30.3817 1.52002H28.8617V22.86H7.53168V24.38H28.8617V28.95H30.3817V1.52002Z" fill="white"/>
<path d="M28.8617 28.95H15.1517V30.4799H28.8617V28.95Z" fill="white"/>
<path d="M13.6216 31.9999V27.4299H27.3416V25.9099H9.05164V27.4299H10.5716V30.4799H12.1016V31.9999H13.6216Z" fill="white"/>
<path d="M15.1516 10.6701H16.6716V12.1901H18.1916V13.7201H19.7216V12.1901H21.2416V10.6701H22.7616V9.14007H24.2916V6.10007H22.7616V4.57007H19.7216V6.10007H18.1916V4.57007H15.1516V6.10007H13.6216V9.14007H15.1516V10.6701Z" fill="white"/>
<path d="M9.05168 3.05005H7.53168V21.33H9.05168V3.05005Z" fill="white"/>
<path d="M28.8616 0H6.00165V1.52H28.8616V0Z" fill="white"/>
<path d="M9.05165 28.95H6.00165V30.4799H9.05165V28.95Z" fill="white"/>
<path d="M7.53165 24.3799H6.00165V25.9099H7.53165V24.3799Z" fill="white"/>
<path d="M6.00169 1.52002H4.48169V3.05002H6.00169V1.52002Z" fill="white"/>
<path d="M4.48166 3.05005H2.95166V27.43H4.48166V28.9501H6.00166V25.91H4.48166V3.05005Z" fill="white"/>
</svg>
