<svg width="33" height="32" viewBox="0 0 33 32" fill="none" xmlns="http://www.w3.org/2000/svg">
<path d="M30.0967 1.52H28.5767V22.86H7.24669V24.38H28.5767V28.95H30.0967V1.52Z" fill="white"/>
<path d="M28.5767 28.95H14.8667V30.48H28.5767V28.95Z" fill="white"/>
<path d="M13.3367 32V27.43H27.0567V25.91H8.76669V27.43H10.2867V30.48H11.8167V32H13.3367Z" fill="white"/>
<path d="M28.5767 0H5.71669V1.52H28.5767V0Z" fill="white"/>
<path d="M8.76669 28.95H5.71669V30.48H8.76669V28.95Z" fill="white"/>
<path d="M7.24669 24.38H5.71669V25.91H7.24669V24.38Z" fill="white"/>
<path d="M5.71669 1.52H4.19669V3.05H5.71669V1.52Z" fill="white"/>
<path d="M4.19669 3.05H2.66669V27.43H4.19669V28.95H5.71669V25.91H4.19669V3.05Z" fill="white"/>
<path fill-rule="evenodd" clip-rule="evenodd" d="M28.5767 1.52V22.86H7.24669V24.38H5.71669V25.91H4.19669V3.05H5.71669V1.52H28.5767ZM20.9567 18.29H16.3867V19.81H20.9567V18.29ZM14.8667 10.67H16.3867V12.19H17.9067V13.72H19.4367V12.19H20.9567V10.67H22.4767V9.14H24.0067V6.1H22.4767V4.57H19.4367V6.1H17.9067V4.57H14.8667V6.1H13.3367V9.14H14.8667V10.67ZM8.76669 3.05H7.24669V21.33H8.76669V3.05ZM24.0067 15.24H13.3367V16.76H24.0067V15.24Z" fill="white"/>
<path d="M24.0067 15.24H13.3367V16.76H24.0067V15.24Z" fill="white"/>
<path d="M20.9567 18.29H16.3867V19.81H20.9567V18.29Z" fill="white"/>
</svg>
