<svg width="32" height="32" viewBox="0 0 32 32" fill="none" xmlns="http://www.w3.org/2000/svg">
<g clip-path="url(#clip0_331_1689)">
<path d="M28.2 30.48V18.29H31.24V3.05H28.2V1.52H26.67V30.48H28.2ZM28.2 4.57H29.72V7.62H28.2V4.57ZM28.2 9.14H29.72V12.19H28.2V9.14ZM28.2 13.72H29.72V16.76H28.2V13.72Z" fill="white"/>
<path d="M26.67 30.48H3.81501V32H26.665L26.67 30.48Z" fill="white"/>
<path d="M26.665 0H3.81501V1.52H26.67L26.665 0Z" fill="white"/>
<path d="M5.33501 27.43V25.91H3.81501V21.33H5.33501V19.81H3.81501V16.76H5.33501V15.24H3.81501V12.19H5.33501V10.67H3.81501V6.1H5.33501V4.57H3.81501V1.52H2.28501V4.57H0.765015V6.1H2.28501V10.67H0.765015V12.19H2.28501V15.24H0.765015V16.76H2.28501V19.81H0.765015V21.33H2.28501V25.91H0.765015V27.43H2.28501V30.48H3.81501V27.43H5.33501Z" fill="white"/>
<path fill-rule="evenodd" clip-rule="evenodd" d="M26.67 1.52V30.48H3.81501V27.43H5.33501V25.91H3.81501V21.33H5.33501V19.81H3.81501V16.76H5.33501V15.24H3.81501V12.19H5.33501V10.67H3.81501V6.1H5.33501V4.57H3.81501V1.52H26.67ZM22.095 24.38H23.625V25.91H22.095V24.38ZM19.045 27.43H23.625V28.95H19.045V27.43ZM22.1 16.76V15.24H23.63V7.62H22.1V6.1H9.90001V7.62H8.38502V15.24H9.90001V16.76H22.1ZM19.045 24.38H20.575V25.91H19.045V24.38Z" fill="white"/>
<path d="M11.435 12.19H20.575V13.72H11.435V12.19Z" fill="white"/>
<path d="M11.435 9.14H20.575V10.67H11.435V9.14Z" fill="white"/>
</g>
<defs>
<clipPath id="clip0_331_1689">
<rect width="32" height="32" fill="white"/>
</clipPath>
</defs>
</svg>
