<svg width="32" height="32" viewBox="0 0 32 32" fill="none" xmlns="http://www.w3.org/2000/svg">
<g clip-path="url(#clip0_331_1411)">
<path d="M28.2 30.48V18.29H31.24V3.05002H28.2V1.52002H26.67V30.48H28.2ZM28.2 4.57002H29.72V7.62002H28.2V4.57002ZM28.2 9.14002H29.72V12.19H28.2V9.14002ZM28.2 13.72H29.72V16.76H28.2V13.72Z" fill="white"/>
<path d="M26.665 30.48H3.815V32H26.665V30.48Z" fill="white"/>
<path d="M23.625 24.3799H22.095V25.9099H23.625V24.3799Z" fill="white"/>
<path d="M23.625 27.4299H19.045V28.9499H23.625V27.4299Z" fill="white"/>
<path d="M22.1 16.7601V15.2401H23.63V7.6201H22.1V6.1001H9.90001V7.6201H8.38501V15.2401H9.90001V16.7601H22.1ZM11.435 9.1401H20.575V10.6701H11.435V9.1401ZM11.435 12.1901H20.575V13.7201H11.435V12.1901Z" fill="white"/>
<path d="M20.575 24.3799H19.045V25.9099H20.575V24.3799Z" fill="white"/>
<path d="M26.665 0H3.815V1.52H26.665V0Z" fill="white"/>
<path d="M5.33501 27.43V25.91H3.81501V21.33H5.33501V19.81H3.81501V16.76H5.33501V15.24H3.81501V12.19H5.33501V10.67H3.81501V6.10002H5.33501V4.57002H3.81501V1.52002H2.28501V4.57002H0.765015V6.10002H2.28501V10.67H0.765015V12.19H2.28501V15.24H0.765015V16.76H2.28501V19.81H0.765015V21.33H2.28501V25.91H0.765015V27.43H2.28501V30.48H3.81501V27.43H5.33501Z" fill="white"/>
</g>
<defs>
<clipPath id="clip0_331_1411">
<rect width="32" height="32" fill="white"/>
</clipPath>
</defs>
</svg>
