<svg width="33" height="32" viewBox="0 0 33 32" fill="none" xmlns="http://www.w3.org/2000/svg">
<path d="M31.5733 23.6201H30.0533V26.6701H31.5733V23.6201Z" fill="white"/>
<path d="M31.5733 14.47H30.0533V17.52H31.5733V14.47Z" fill="white"/>
<path d="M31.5733 5.33008H30.0533V8.38008H31.5733V5.33008Z" fill="white"/>
<path d="M30.0534 26.6702H11.7634V28.1902H30.0534V26.6702Z" fill="white"/>
<path d="M30.0534 17.52H11.7634V19.05H30.0534V17.52Z" fill="white"/>
<path d="M30.0534 8.38013H11.7634V9.90013H30.0534V8.38013Z" fill="white"/>
<path d="M30.0534 22.0901H11.7634V23.6201H30.0534V22.0901Z" fill="white"/>
<path d="M30.0534 12.95H11.7634V14.47H30.0534V12.95Z" fill="white"/>
<path d="M30.0534 3.81006H11.7634V5.33006H30.0534V3.81006Z" fill="white"/>
<path d="M11.7633 23.6201H10.2433V26.6701H11.7633V23.6201Z" fill="white"/>
<path d="M11.7633 14.47H10.2433V17.52H11.7633V14.47Z" fill="white"/>
<path d="M11.7633 5.33008H10.2433V8.38008H11.7633V5.33008Z" fill="white"/>
<path d="M1.09335 26.6701H2.62335V28.1901H5.67335V26.6701H7.19335V23.6201H5.67335V22.0901H2.62335V23.6201H1.09335V26.6701Z" fill="white"/>
<path d="M1.09335 17.52H2.62335V19.05H5.67335V17.52H7.19335V14.47H5.67335V12.95H2.62335V14.47H1.09335V17.52Z" fill="white"/>
<path d="M2.62335 5.33006H1.09335V8.38006H2.62335V9.90006H5.67335V8.38006H7.19335V5.33006H5.67335V3.81006H2.62335V5.33006Z" fill="white"/>
</svg>
