<svg width="33" height="32" viewBox="0 0 33 32" fill="none" xmlns="http://www.w3.org/2000/svg">
<path d="M31.5734 23.6201H30.0534V26.6701H31.5734V23.6201Z" fill="white"/>
<path d="M31.5734 14.4701H30.0534V17.5201H31.5734V14.4701Z" fill="white"/>
<path d="M31.5734 5.33006H30.0534V8.38006H31.5734V5.33006Z" fill="white"/>
<path d="M30.0534 26.6701H11.7634V28.1901H30.0534V26.6701Z" fill="white"/>
<path d="M30.0534 17.5201L11.7634 17.5201V19.0501H30.0534V17.5201Z" fill="white"/>
<path d="M30.0534 8.38006H11.7634V9.90006H30.0534V8.38006Z" fill="white"/>
<path d="M30.0534 22.0901H11.7634V23.6201H30.0534V22.0901Z" fill="white"/>
<path d="M30.0534 12.9501H11.7634V14.4701H30.0534V12.9501Z" fill="white"/>
<path d="M30.0534 3.81006H11.7634V5.33006H30.0534V3.81006Z" fill="white"/>
<path d="M11.7634 23.6201H10.2434V26.6701H11.7634V23.6201Z" fill="white"/>
<path d="M11.7634 14.4701H10.2434V17.5201L11.7634 17.5201V14.4701Z" fill="white"/>
<path d="M11.7634 5.33006H10.2434V8.38006H11.7634V5.33006Z" fill="white"/>
<path d="M1.09335 26.6701H2.62335V28.1901H5.67335V26.6701H7.19335V23.6201H5.67335V22.0901H2.62335V23.6201H1.09335V26.6701Z" fill="white"/>
<path d="M1.09335 17.5201H2.62335V19.0501H5.67335V17.5201H7.19335V14.4701H5.67335V12.9501H2.62335V14.4701H1.09335V17.5201Z" fill="white"/>
<path d="M2.62335 5.33006H1.09335V8.38006H2.62335V9.90006H5.67335V8.38006H7.19335V5.33006H5.67335V3.81006H2.62335V5.33006Z" fill="white"/>
<path d="M30.0534 8.38006V5.33006H11.7634V8.38006H30.0534Z" fill="white"/>
<path d="M30.0534 17.5201V14.4701H11.7634V17.5201L30.0534 17.5201Z" fill="white"/>
<path d="M30.0534 26.6701V23.6201H11.7634V26.6701H30.0534Z" fill="white"/>
</svg>
