<svg width="32" height="32" viewBox="0 0 32 32" fill="none" xmlns="http://www.w3.org/2000/svg">
<path d="M28 13.3333V11.9999H26.6667V9.33325H28V6.66659H26.6667V5.33325H25.3334V3.99992H22.6667V5.33325H20V3.99992H18.6667V1.33325H13.3334V3.99992H12V5.33325H9.33337V3.99992H6.66671V5.33325H5.33337V6.66659H4.00004V9.33325H5.33337V11.9999H4.00004V13.3333H1.33337V18.6666H4.00004V19.9999H5.33337V22.6666H4.00004V25.3333H5.33337V26.6666H6.66671V27.9999H9.33337V26.6666H12V27.9999H13.3334V30.6666H18.6667V27.9999H20V26.6666H22.6667V27.9999H25.3334V26.6666H26.6667V25.3333H28V22.6666H26.6667V19.9999H28V18.6666H30.6667V13.3333H28ZM13.3334 13.3333V11.9999H18.6667V13.3333H20V18.6666H18.6667V19.9999H13.3334V18.6666H12V13.3333H13.3334Z" fill="white"/>
</svg>
