<svg width="32" height="32" viewBox="0 0 32 32" fill="none" xmlns="http://www.w3.org/2000/svg">
<g clip-path="url(#clip0_338_956)">
<path d="M31.24 3.81006H29.72V29.7201H31.24V3.81006Z" fill="white"/>
<path d="M29.7201 29.72H3.81006V31.24H29.7201V29.72Z" fill="white"/>
<path d="M28.19 2.29004H26.67V26.67H28.19V2.29004Z" fill="white"/>
<path d="M23.6201 14.4801H20.5701V16.0001H23.6201V20.5701H25.1501V5.34009H23.6201V14.4801Z" fill="white"/>
<path d="M20.57 19.05H19.05V20.57H5.33997V22.1H23.62V20.57H20.57V19.05Z" fill="white"/>
<path d="M20.57 16H19.05V17.53H20.57V16Z" fill="white"/>
<path d="M19.05 17.53H17.53V19.05H19.05V17.53Z" fill="white"/>
<path d="M17.53 12.9501H20.57V11.4301H22.1V8.38011H20.57V6.86011H17.53V8.38011H16V11.4301H17.53V12.9501Z" fill="white"/>
<path d="M17.53 16H16V17.53H17.53V16Z" fill="white"/>
<path d="M16 14.48H14.48V16H16V14.48Z" fill="white"/>
<path d="M14.48 12.95H12.96V14.48H14.48V12.95Z" fill="white"/>
<path d="M12.96 11.4299H9.91003V12.9499H12.96V11.4299Z" fill="white"/>
<path d="M9.91 12.95H8.38V14.48H9.91V12.95Z" fill="white"/>
<path d="M8.37999 14.48H6.85999V16H8.37999V14.48Z" fill="white"/>
<path d="M23.62 3.81006H5.33997V5.34006H23.62V3.81006Z" fill="white"/>
<path d="M5.34006 17.5301H6.86006V16.0001H5.34006V5.34009H3.81006V20.5701H5.34006V17.5301Z" fill="white"/>
<path d="M26.67 0.76001H2.29004V2.29001H26.67V0.76001Z" fill="white"/>
<path d="M26.67 26.6699H2.29004V28.1899H26.67V26.6699Z" fill="white"/>
<path d="M2.29001 2.29004H0.76001V26.67H2.29001V2.29004Z" fill="white"/>
</g>
<defs>
<clipPath id="clip0_338_956">
<rect width="32" height="32" fill="white"/>
</clipPath>
</defs>
</svg>
